<?xml version="1.0" encoding="UTF-8"?>
<svg id="Layer_2" data-name="Layer 2" xmlns="http://www.w3.org/2000/svg" viewBox="0 0 247.76 310.16">
  <defs>
    <style>
      .cls-1 {
        fill: #ed0100;
      }

      .cls-2 {
        fill: #ba0006;
      }

      .cls-3 {
        fill: #d70008;
      }

      .cls-4 {
        fill: #8b0002;
      }
    </style>
  </defs>
  <g id="Layer_1-2" data-name="Layer 1">
    <g>
      <g>
        <path class="cls-1" d="m2.52,49.36c6.45,20.59,12.89,41.18,19.34,61.77,14.53-15.78,29.06-31.56,43.58-47.34-6.25-21.26-12.51-42.53-18.76-63.79C31.96,16.45,17.24,32.9,2.52,49.36Z"/>
        <path class="cls-3" d="m234.1,51.28C171.63,34.19,109.15,17.09,46.68,0c6.25,21.26,12.51,42.53,18.76,63.79,60.77,16.1,121.55,32.2,182.32,48.3-4.55-20.27-9.11-40.54-13.66-60.81Z"/>
        <path class="cls-4" d="m202.66,157.19c-60.27-15.35-120.53-30.71-180.8-46.06,14.53-15.78,29.06-31.56,43.58-47.34,60.77,16.1,121.55,32.2,182.32,48.3-15.04,15.03-30.07,30.07-45.11,45.1Z"/>
      </g>
      <path class="cls-2" d="m172.42,34.4c4.94,20.55,9.88,41.1,14.82,61.64,20.17,5.35,40.35,10.69,60.52,16.04-4.56-20.27-9.11-40.54-13.67-60.81-20.56-5.62-41.12-11.25-61.68-16.87Z"/>
      <path class="cls-4" d="m17.79,266.92c56.48-56.96,112.97-113.91,169.45-170.87,20.17,5.35,40.35,10.69,60.52,16.04-56.51,56.51-113.02,113.02-169.53,169.53-20.15-4.9-40.3-9.8-60.45-14.7Z"/>
      <path class="cls-1" d="m17.79,266.92c56.48-56.96,112.97-113.91,169.45-170.87-4.94-20.55-9.88-41.1-14.82-61.65C114.95,93.66,57.47,152.92,0,212.17c5.93,18.25,11.86,36.5,17.79,54.74Z"/>
      <path class="cls-1" d="m0,212.18c5.93,18.25,11.86,36.49,17.79,54.74,13.65-13.76,27.3-27.52,40.95-41.28-5.71-18.75-11.42-37.5-17.13-56.25C27.74,183.65,13.87,197.92,0,212.18Z"/>
      <path class="cls-4" d="m190.53,310.16c-57.58-14.41-115.16-28.83-172.74-43.24,13.65-13.76,27.3-27.53,40.95-41.29,57.58,14.41,115.16,28.83,172.74,43.24-13.65,13.76-27.3,27.53-40.95,41.29Z"/>
      <path class="cls-3" d="m231.48,268.87c-57.58-14.41-115.16-28.83-172.74-43.24-5.71-18.74-11.42-37.49-17.13-56.24,57.59,14.44,115.17,28.87,172.76,43.31,5.7,18.73,11.4,37.44,17.11,56.17Z"/>
    </g>
  </g>
</svg>